With: Charisma Carpenter, Paul Sculfor en Ricci Harnett

In 1992 trotseert een groep jonge anarchisten de sneeuwbedekte wildernis, om vanuit hun basis daar actie te voeren tegen de aanleg van een autowegomleiding. Een verschrikkelijk lot wachtte hen. 15 Jaar later verhuist een succesvolle horrorschrijfster, de gevoelige Susan, van Californië naar het Engelse platteland, op zoek naar rust. De pas gehuwde vindt die in het idyllische afgelegen Hamlet. Daar begint voor Susan een ware nachtmerrie

A serial killer unleashes his blood lust at a remote environmental-camp. Years later a horror novelist relocates to rural England and is plagued to the point of madness by horrific hauntings of a massacre. 

------------------ Dutch Friends ------------------

You can find my Friends at: http://www.Film-Test.nl 
                    
------ They got my dutchs subs ---- and more ------

General:

Complete name                    : Psychosis\Psychosis.avi
Format                           : AVI
Format/Info                      : Audio Video Interleave
File size                        : 1.37 GiB
Duration                         : 1h 29mn
Overall bit rate                 : 2 193 Kbps

Video:

Format                           : MPEG-4 Visual
Format profile                   : Simple@L3
Format settings, BVOP            : No
Format settings, QPel            : No
Format settings, GMC             : No warppoints
Format settings, Matrix          : Default (H.263)
Codec ID                         : XVID
Codec ID/Hint                    : XviD
Duration                         : 1h 29mn
Bit rate                         : 1 734 Kbps
Width                            : 704 pixels
Height                           : 396 pixels
Display aspect ratio             : 16:9
Frame rate                       : 25.000 fps
Color space                      : YUV
Chroma subsampling               : 4:2:0
Bit depth                        : 8 bits
Scan type                        : Progressive
Bits/(Pixel*Frame)               : 0.249
Stream size                      : 1.08 GiB (79%)
Writing library                  : XviD 1.1.2 (UTC 2006-11-01)

Audio:

Format                           : AC-3
Format/Info                      : Audio Coding 3
Mode extension                   : CM (complete main)
Codec ID                         : 2000
Duration                         : 1h 29mn
Bit rate mode                    : Constant
Bit rate                         : 448 Kbps
Channel(s)                       : 6 channels
Channel positions                : Front: L C R, Side: L R, LFE
Sampling rate                    : 48.0 KHz
Bit depth                        : 16 bits
Stream size                      : 287 MiB (20%)
Alignment                        : Aligned on interleaves
Interleave, duration             : 32 ms (0.80 video frame)
Interleave, preload duration     : 608 ms

